<svg xmlns:dc="http://purl.org/dc/elements/1.1/" xmlns:cc="http://creativecommons.org/ns#" xmlns:rdf="http://www.w3.org/1999/02/22-rdf-syntax-ns#" xmlns:svg="http://www.w3.org/2000/svg" xmlns:sodipodi="http://sodipodi.sourceforge.net/DTD/sodipodi-0.dtd" xmlns:inkscape="http://www.inkscape.org/namespaces/inkscape" width="490.64" height="88.299" viewBox="0 0 490.64 88.299" version="1.1" sodipodi:docname="googleDriveLogo.svg" inkscape:version="0.92.4 (5da689c313, 2019-01-14)">
    <metadata>
        <rdf:RDF>
            <cc:Work>
                <dc:format>
                    image/svg+xml
                </dc:format>
                <dc:type rdf:resource="http://purl.org/dc/dcmitype/StillImage"/>
                <dc:title>
                    Google Drive Lockup
                </dc:title>
            </cc:Work>
        </rdf:RDF>
    </metadata>
    <sodipodi:namedview pagecolor="#ffffff" bordercolor="#666666" borderopacity="1" objecttolerance="10" gridtolerance="10" guidetolerance="10" inkscape:pageopacity="0" inkscape:pageshadow="2" inkscape:window-width="1920" inkscape:window-height="1043" showgrid="false" fit-margin-top="0" fit-margin-left="0" fit-margin-right="0" fit-margin-bottom="0" inkscape:zoom=".688" inkscape:cx="50.234" inkscape:cy="37.851" inkscape:window-x="3840" inkscape:window-y="0" inkscape:window-maximized="1" inkscape:current-layer="svg23"/>
    <script/>
    <title>
        Google Drive Lockup
    </title>
    <desc>
        Created with Sketch.
    </desc>
    <defs/>
    <g style="fill:none;fill-rule:evenodd;stroke:none;stroke-width:1" transform="translate(0 -.25)">
        <g>
            <g transform="matrix(1 0 0 -1 0 88.548)">
                <g>
                    <path d="m 0.46887507,54.167239 c 0,18.78291 15.83755793,34.072836 34.67721893,34.072836 10.419446,0 17.836789,-4.070821 23.424217,-9.388209 L 51.986523,72.28791 c -3.998462,3.739702 -9.416574,6.648359 -16.840429,6.648359 -13.753669,0 -24.505235,-11.050299 -24.505235,-24.76903 0,-13.712239 10.751566,-24.76903 24.505235,-24.76903 8.921651,0 14.00113,3.570895 17.257207,6.817164 2.669983,2.66194 4.415241,6.479552 5.085992,11.71903 H 35.146094 v 9.310298 h 31.427654 c 0.33212,-1.662089 0.501436,-3.655298 0.501436,-5.817313 0,-6.979478 -1.914573,-15.621045 -8.088095,-21.77597 -6.004206,-6.232836 -13.669011,-9.557015 -23.840995,-9.557015 -18.839661,0 -34.67721893,15.296418 -34.67721893,34.072836 z" inkscape:connector-curvature="0" style="fill:#4285f4;fill-rule:nonzero"/>
                    <path d="m 92.472583,63.977463 c -12.171215,0 -22.089225,-9.225896 -22.089225,-21.938284 0,-12.634477 9.91801,-21.938284 22.089225,-21.938284 12.171217,0 22.089227,9.310299 22.089227,21.938284 0,12.712388 -9.91801,21.938284 -22.089227,21.938284 z m 0,-35.241493 c -6.668445,0 -12.418677,5.486194 -12.418677,13.296717 0,7.894925 5.750232,13.296716 12.418677,13.296716 6.668446,0 12.418677,-5.401791 12.418677,-13.296716 0,-7.810523 -5.750231,-13.296717 -12.418677,-13.296717 z" inkscape:connector-curvature="0" style="fill:#ea4335;fill-rule:nonzero"/>
                    <path d="m 140.66252,63.977463 c -12.17121,0 -22.08922,-9.225896 -22.08922,-21.938284 0,-12.634477 9.91801,-21.938284 22.08922,-21.938284 12.17122,0 22.08923,9.310299 22.08923,21.938284 0,12.712388 -9.91801,21.938284 -22.08923,21.938284 z m 0,-35.241493 c -6.66844,0 -12.41868,5.486194 -12.41868,13.296717 0,7.894925 5.75024,13.296716 12.41868,13.296716 6.66845,0 12.41868,-5.401791 12.41868,-13.296716 0,-7.810523 -5.75023,-13.296717 -12.41868,-13.296717 z" inkscape:connector-curvature="0" style="fill:#fbbc05;fill-rule:nonzero"/>
                    <path d="m 199.81241,62.646492 v -3.570895 h -0.33212 c -2.16854,2.577537 -6.33632,4.901866 -11.58512,4.901866 -11.00554,0 -21.09286,-9.641418 -21.09286,-22.022687 0,-12.303358 10.08732,-21.860373 21.09286,-21.860373 5.2488,0 9.41658,2.324328 11.58512,4.986269 h 0.33212 v -3.155374 c 0,-8.39485 -4.49989,-12.8811935 -11.75443,-12.8811935 -5.91955,0 -9.58589,4.2396265 -11.08369,7.8105225 l -8.42021,-3.492985 c 2.416,-5.8173136 8.83699,-12.96559722 19.5039,-12.96559722 11.33766,0 20.92355,6.64835822 20.92355,22.85373122 V 62.646492 Z M 188.72873,28.73597 c -6.66845,0 -12.25588,5.570597 -12.25588,13.212314 0,7.726119 5.58743,13.381119 12.25588,13.381119 6.58379,0 11.75444,-5.648508 11.75444,-13.381119 -0.007,-7.641717 -5.17065,-13.212314 -11.75444,-13.212314 z" inkscape:connector-curvature="0" style="fill:#4285f4;fill-rule:nonzero"/>
                    <polygon points="225.32052,21.425373 215.64997,21.425373 215.64997,85.915746 225.32052,85.915746" style="fill:#34a853;fill-rule:nonzero"/>
                    <path d="m 251.8315,28.73597 c -4.91668,0 -8.42022,2.246418 -10.66691,6.648358 l 29.42842,12.134553 -1.00287,2.493134 c -1.83643,4.901866 -7.41734,13.958955 -18.83966,13.958955 -11.33766,0 -20.75423,-8.894776 -20.75423,-21.938283 0,-12.296866 9.33842,-21.938284 21.84176,-21.938284 10.08733,0 15.92222,6.148433 18.33823,9.725821 l -7.50201,4.986268 C 260.16705,31.151194 256.74817,28.73597 251.8315,28.73597 Z m -0.75541,26.762239 c 3.83566,0 7.08522,-1.908806 8.16624,-4.655149 l -19.67322,-8.141642 c -0.24746,8.479254 6.5903,12.796791 11.50698,12.796791 z" inkscape:connector-curvature="0" style="fill:#ea4335;fill-rule:nonzero"/>
                    <polygon points="0,0 270.9056,0 270.9056,88.298507 0,88.298507"/>
                </g>
            </g>
        </g>
        <path d="M 304.69239,67.483293 V 7.9804872 h 18.25487 c 9.16915,0 16.50437,2.7562708 22.00587,8.2688958 5.50149,5.512624 8.2522,12.673389 8.2522,21.482507 0,8.809119 -2.75071,15.969883 -8.2522,21.482508 -5.5015,5.512624 -12.83672,8.268895 -22.00587,8.268895 z m 7.66871,-7.313194 h 10.58616 c 6.89076,0 12.35049,-1.966786 16.37936,-5.900418 4.02888,-3.933631 6.04328,-9.446173 6.04328,-16.537791 0,-7.036214 -2.0144,-12.534905 -6.04328,-16.496239 -4.02887,-3.961333 -9.4886,-5.94197 -16.37936,-5.94197 H 312.3611 Z m 55.80192,7.313194 h -7.66871 V 26.762099 h 7.33529 v 6.648358 h 0.33342 c 0.77799,-2.21613 2.37562,-4.04441 4.79295,-5.484895 2.41732,-1.440485 4.76514,-2.160717 7.04354,-2.160717 2.2784,0 4.19556,0.332415 5.75154,0.997254 l -2.91745,7.146985 c -1.00027,-0.387823 -2.36173,-0.581731 -4.08442,-0.581731 -2.77854,0 -5.2375,1.094198 -7.37697,3.282627 -2.13947,2.188429 -3.20919,5.055504 -3.20919,8.601313 z m 28.29459,-49.36406 c -1.50041,0 -2.77852,-0.526323 -3.83436,-1.578985 -1.05584,-1.052661 -1.58376,-2.326917 -1.58376,-3.822805 0,-1.495889 0.52792,-2.7701445 1.58376,-3.8228065 1.05584,-1.052662 2.33395,-1.5789851 3.83436,-1.5789851 1.5004,0 2.77851,0.5263231 3.83435,1.5789851 1.05584,1.052662 1.58376,2.3269175 1.58376,3.8228065 0,1.495888 -0.52792,2.770144 -1.58376,3.822805 -1.05584,1.052662 -2.33395,1.578985 -3.83435,1.578985 z m 3.83435,49.36406 h -7.66871 V 26.762099 h 7.66871 z m 23.37661,0 -16.5044,-40.721194 h 8.33555 l 12.0032,31.579702 h 0.16672 l 12.16991,-31.579702 h 8.16884 l -16.67111,40.721194 z m 47.79978,1.329672 c -6.16834,0 -11.18351,-2.04989 -15.04567,-6.149732 -3.86217,-4.099841 -5.79322,-9.279968 -5.79322,-15.540537 0,-5.928149 1.87549,-11.025173 5.6265,-15.291224 3.75102,-4.266051 8.54392,-6.399045 14.37884,-6.399045 6.0572,0 10.90567,1.966787 14.54555,5.900418 3.63987,3.933632 5.45979,9.196863 5.45979,15.789851 l -0.0834,1.412776 h -32.2586 c 0.22228,4.099842 1.59763,7.340884 4.1261,9.723224 2.52846,2.38234 5.48755,3.573493 8.87736,3.573493 5.5015,0 9.22468,-2.326902 11.16965,-6.980776 l 6.83516,2.825552 c -1.3337,3.157986 -3.52871,5.803452 -6.58509,7.936478 -3.05639,2.133025 -6.80735,3.199522 -11.25301,3.199522 z m 11.00294,-26.593433 c -0.16671,-2.326937 -1.23643,-4.543034 -3.20919,-6.648358 -1.97276,-2.105324 -4.90407,-3.15797 -8.79401,-3.15797 -2.83411,0 -5.29307,0.886439 -7.37697,2.659343 -2.0839,1.772904 -3.51482,4.155209 -4.29281,7.146985 z" inkscape:connector-curvature="0" style="fill:#757575"/>
    </g>
</svg>
