<?xml version="1.0" encoding="UTF-8" standalone="no"?>
<svg
   xmlns:dc="http://purl.org/dc/elements/1.1/"
   xmlns:cc="http://creativecommons.org/ns#"
   xmlns:rdf="http://www.w3.org/1999/02/22-rdf-syntax-ns#"
   xmlns:svg="http://www.w3.org/2000/svg"
   xmlns="http://www.w3.org/2000/svg"
   xmlns:sodipodi="http://sodipodi.sourceforge.net/DTD/sodipodi-0.dtd"
   xmlns:inkscape="http://www.inkscape.org/namespaces/inkscape"
   enable-background="new 0 0 1209.872 1699.001"
   version="1.1"
   viewBox="0 0 48.000002 48.000001"
   id="svg10"
   sodipodi:docname="logo.svg"
   width="48"
   height="48"
   inkscape:version="0.92.4 (unknown)">
  <metadata
     id="metadata16">
    <rdf:RDF>
      <cc:Work
         rdf:about="">
        <dc:format>image/svg+xml</dc:format>
        <dc:type
           rdf:resource="http://purl.org/dc/dcmitype/StillImage" />
        <dc:title></dc:title>
      </cc:Work>
    </rdf:RDF>
  </metadata>
  <defs
     id="defs14" />
  <sodipodi:namedview
     pagecolor="#ffffff"
     bordercolor="#666666"
     borderopacity="1"
     objecttolerance="10"
     gridtolerance="10"
     guidetolerance="10"
     inkscape:pageopacity="0"
     inkscape:pageshadow="2"
     inkscape:window-width="640"
     inkscape:window-height="480"
     id="namedview12"
     showgrid="false"
     fit-margin-left="4"
     fit-margin-right="4"
     fit-margin-bottom="4"
     fit-margin-top="4"
     inkscape:zoom="10.925"
     inkscape:cx="25.53559"
     inkscape:cy="18.342939"
     inkscape:current-layer="svg10" />
  <style
     type="text/css"
     id="style2">.st0{fill:#FFFFFF;}</style>
  <g
     id="g827"
     transform="rotate(-90,24,23.999998)">
    <path
       id="path6"
       d="m 20.384759,12.835136 c 2.17916,2.467568 1.980453,5.792044 -0.545305,8.026465 2.084594,1.82239 2.816572,5.008201 1.316515,7.485707 -0.966204,-0.409231 -2.112283,-0.462141 -3.060237,0.02893 -0.688765,-0.50096 -1.55745,-0.724169 -2.384935,-0.525782 -0.628867,-2.416945 -2.591248,-3.558417 -4.945765,-3.006694 0,-0.604306 -0.128386,-1.208612 -0.422465,-1.733554 0.928941,-0.0893 1.840436,-0.486076 2.504643,-1.178051 0.981995,1.237819 2.598226,1.591295 4.013781,0.648117 0.367756,0.80106 1.001858,1.471526 1.795256,1.810445 0.129996,-0.335653 0.256011,-0.672099 0.389944,-1.005232 -1.630814,-0.729488 -2.139929,-3.373701 -0.381266,-4.640215 -0.198171,-0.29926 -0.393926,-0.600153 -0.592096,-0.898621 -1.115213,0.776286 -1.709635,2.232042 -1.520232,3.611 -1.1047,0.937393 -2.375273,0.645505 -3.053929,-0.426588 0.328122,-0.665474 0.438301,-1.451651 0.235389,-2.175026 1.518442,-0.974206 1.660159,-2.894949 1.005838,-4.350846 2.105797,-0.05692 3.518355,-1.43546 3.586529,-3.593643 C 19.327477,10.5842 20.118504,9.6872123 20.344409,8.617499 20.013871,8.527404 19.681768,8.4447268 19.346533,8.3753007 18.94044,10.260305 16.718872,10.460651 15.48176,8.9878651 c -0.267105,0.23394 -0.525488,0.4769782 -0.782304,0.7216961 0.654679,0.7803908 1.586796,1.3152708 2.590219,1.3657078 -0.540026,4.798243 -7.9805029,1.392675 -6.479685,-2.45777 0.423136,-1.1711464 1.73813,-2.0785387 3.225125,-1.4367667 4.956501,-7.6476079 10.173799,0.2959943 6.34951,5.6544057 z M 9.7385714,10.829569 c 0.7153376,1.938473 1.9457846,2.866815 3.5746746,3.473734 1.455368,1.206513 0.826412,3.967882 -1.16433,3.87634 1.127917,1.344805 0.760205,2.534941 -0.431189,3.284445 C 9.1332789,23.047779 8.4388321,20.593322 5.3682173,22.271773 3.4327664,19.845824 5.5007634,16.229645 8.3603243,16.2875 6.859283,14.61922 6.8116863,11.136061 9.7386162,10.829522 Z m -0.3360847,15.64328 c 2.5328253,-1.164661 4.6934663,-0.938886 5.3514993,1.852624 -0.775951,0.596887 -1.198417,1.625262 -1.06766,2.623076 -2.813217,1.963669 -1.944756,6.174169 1.699346,6.557226 0.181485,1.397108 1.183342,2.565221 2.426941,3.062076 0.14109,-0.330661 0.250464,-0.673733 0.377284,-1.009386 -2.269075,-0.96716 -2.573354,-4.112006 0.132367,-4.866829 -0.0769,-0.35133 -0.150574,-0.7035 -0.225905,-1.054876 -1.333961,0.308265 -2.364269,1.226948 -2.698028,2.77518 -2.864571,-0.376245 -3.1629,-3.463656 -0.516003,-4.905555 -0.626363,-2.781712 1.480284,-3.34132 3.145857,-1.716198 2.985352,-2.614445 6.540523,2.652518 3.030935,6.55256 4.136755,4.667602 -0.519895,10.403191 -4.490822,6.171369 -3.030309,1.273512 -4.87419,-0.558909 -4.466353,-3.774674 -3.1675971,0.943925 -5.1077003,-1.666321 -4.173883,-4.918619 -2.9574384,-0.970986 -4.0519393,-3.697409 -3.917067,-6.6832 0.4056458,-6.161571 7.453986,-5.504635 5.3913128,-0.664588 z"
       class="st0"
       inkscape:connector-curvature="0"
       style="fill:#3d5afe;fill-opacity:1;stroke:#3d5afe;stroke-width:1;stroke-opacity:0" />
    <path
       id="path8"
       d="m 33.947588,7.1807303 c 1.48279,-0.6399524 2.800467,0.2614212 3.225125,1.4367667 1.502025,3.852825 -5.940196,7.249621 -6.479685,2.45777 1.003423,-0.05044 1.93554,-0.585317 2.590219,-1.3657078 C 33.02643,9.4648413 32.768048,9.2218031 32.500943,8.9878631 31.264188,10.460229 29.042352,10.260676 28.636169,8.3752987 c -0.335279,0.069426 -0.667383,0.152103 -0.997876,0.2421983 0.225906,1.06976 1.016933,1.966701 2.017985,2.294049 0.06817,2.15823 1.480911,3.536675 3.586529,3.593643 -0.648102,1.442086 -0.525621,3.368335 1.005839,4.350846 -0.202912,0.723375 -0.09273,1.509552 0.235389,2.175026 -0.676643,1.06892 -1.946276,1.366501 -3.053929,0.426588 0.189447,-1.378911 -0.40502,-2.834714 -1.520232,-3.611 -0.198171,0.298421 -0.393926,0.599361 -0.592096,0.898621 1.757992,1.266001 1.250174,3.910447 -0.381266,4.640215 0.133933,0.33318 0.259993,0.669626 0.389944,1.005232 0.793398,-0.338965 1.427499,-1.009385 1.795255,-1.810445 1.396499,0.930441 3.017248,0.607992 4.013782,-0.648117 0.664207,0.691928 1.575702,1.088749 2.504643,1.178051 -0.294035,0.524942 -0.422466,1.129248 -0.422466,1.733554 -2.352235,-0.551163 -4.316405,0.58737 -4.945764,3.006694 -0.827485,-0.198387 -1.69617,0.02482 -2.384936,0.525782 -0.947953,-0.491069 -2.094077,-0.438159 -3.060236,-0.02893 -1.501757,-2.480492 -0.765529,-5.665603 1.316514,-7.485707 -2.526428,-2.23512 -2.723883,-5.559224 -0.545304,-8.026465 -3.396277,-4.759051 0.236507,-10.4381848 3.75853,-8.4141886 1.100182,0.6356599 1.898367,1.6905362 2.591069,2.7594563 z m 5.674924,9.1065837 c 2.858622,-0.05771 4.928319,3.557437 2.992107,5.984273 -0.702051,-0.383757 -1.68512,-0.958389 -3.528688,-0.390196 -2.090722,0.652177 -5.323765,-1.231847 -3.252055,-3.701935 -1.990697,0.0915 -2.619967,-2.66964 -1.16433,-3.87634 1.567605,-0.584103 2.835494,-1.47078 3.574675,-3.473734 2.897629,0.303133 2.895795,3.771082 1.378291,5.457978 z m 0.43195,17.533369 c 0.932206,3.246932 -0.999218,5.86483 -4.173884,4.918619 0.408106,3.216465 -1.452997,5.040861 -4.466353,3.774674 -3.997051,4.25977 -8.604538,-1.529429 -4.490822,-6.171369 -3.513747,-3.904615 0.04093,-9.170971 3.030936,-6.55256 1.645084,-1.605153 3.777274,-1.087816 3.145857,1.716198 2.636742,1.436393 2.359572,4.52791 -0.516004,4.905555 -0.331566,-1.538014 -1.352883,-2.464349 -2.698027,-2.77518 -0.07529,0.35133 -0.149008,0.7035 -0.225906,1.054876 2.701517,0.753516 2.404172,3.898409 0.132368,4.866829 0.12682,0.335653 0.236194,0.678725 0.377284,1.009386 1.243599,-0.496855 2.245456,-1.664968 2.426941,-3.062076 3.647412,-0.38329 4.511399,-4.594397 1.699346,-6.557226 0.130801,-0.997814 -0.291664,-2.026235 -1.067661,-2.623076 0.66036,-2.799769 2.821716,-3.015979 5.3515,-1.852624 -1.666288,-3.910354 2.325574,-4.602935 4.028812,-2.861169 2.151112,2.149551 2.17075,8.657273 -2.554477,10.20863 z"
       class="st0"
       inkscape:connector-curvature="0"
       style="fill:#3d5afe;fill-opacity:1;stroke-width:1" />
  </g>
</svg>
